<svg xmlns="http://www.w3.org/2000/svg" viewBox="0 0 128 104" role="img" aria-labelledby="title desc">
  <title id="title">FertaFind</title>
  <desc id="desc">A green leaf and a charcoal leaf growing above fertilizer granules and soil.</desc>
  <defs>
    <linearGradient id="greenLeaf" x1="22" y1="14" x2="65" y2="68" gradientUnits="userSpaceOnUse">
      <stop stop-color="#19b73d"/>
      <stop offset="1" stop-color="#079127"/>
    </linearGradient>
    <linearGradient id="darkLeaf" x1="105" y1="17" x2="64" y2="68" gradientUnits="userSpaceOnUse">
      <stop stop-color="#171a18"/>
      <stop offset="1" stop-color="#070908"/>
    </linearGradient>
    <linearGradient id="soil" x1="25" y1="73" x2="102" y2="98" gradientUnits="userSpaceOnUse">
      <stop stop-color="#8b4a1f"/>
      <stop offset="1" stop-color="#5c2d12"/>
    </linearGradient>
  </defs>
  <path d="M59 65C40 65 25 54 21 37c-2-9 0-19 4-27 12 1 24 5 32 14 10 11 11 26 8 40-2 1-4 1-6 1Z" fill="url(#greenLeaf)"/>
  <path d="M69 65c18 0 34-10 38-28 2-9 0-19-4-27-13 1-24 5-33 14-9 10-11 25-7 40 2 1 4 1 6 1Z" fill="url(#darkLeaf)"/>
  <path d="M64 65 44 31m20 34-11-12m11 12 7-29m-7 29 14-15" fill="none" stroke="#fff" stroke-width="5" stroke-linecap="round" stroke-linejoin="round"/>
  <circle cx="48" cy="76" r="2.4" fill="#74401e"/>
  <circle cx="56" cy="79" r="3" fill="#6b3718"/>
  <circle cx="64" cy="75" r="2.5" fill="#814822"/>
  <circle cx="72" cy="79" r="3.1" fill="#623113"/>
  <circle cx="80" cy="76" r="2.2" fill="#7a431f"/>
  <circle cx="61" cy="83" r="3.4" fill="#8d4e23"/>
  <circle cx="69" cy="84" r="3.6" fill="#713816"/>
  <path d="M22 75c11 11 25 17 42 17 16 0 31-6 42-17-5 18-21 28-42 28S27 93 22 75Z" fill="url(#soil)"/>
</svg>
